{"title":"Dalziel &amp; Pascoe S06","uid":15508746,"size":2666193275,"categoryP":"video","categoryS":"tv_shows","magnet":"?xt=urn:btih:273ce6d3a3e65d2620a738f6f67ffe80744ed4a7&amp;dn=Dalziel+%26amp%3B+Pascoe+S06&amp;tr=udp%3A%2F%2Ftracker.leechers-paradise.org%3A6969&amp;tr=udp%3A%2F%2Fzer0day.ch%3A1337&amp;tr=udp%3A%2F%2Fopen.demonii.com%3A1337&amp;tr=udp%3A%2F%2Ftracker.coppersurfer.tk%3A6969&amp;tr=udp%3A%2F%2Fexodus.desync.com%3A6969","seeders":3,"leechers":1,"uploader":"RedBaron58","files":4,"time":1470619881,"description":"Death in Paradise S05E06 x264 mp4\r\n \nhttp://www.imdb.com/title/tt1888075/\r\n\r\nTrailer:\r\n\r\n\r\nPlease be patient My intial upload speed is limited.\r\nThank you for your kind comments and feedback on my other torrents, your feedback is welcome.\r\n\r\n\r\nAbout the Episode:\r\nThe Caribbean cops enter the high-pressure world of fine dining when a famous chef is found \r\nstabbed to death the morning after the opening of his new restaurant. \r\nIt proves to be a tricky investigation as the body was stored in a freezer, so the time of \r\ndeath cannot be identified, and when it turns out he was quite a hot-head in the kitchen, \r\nall his staff come under suspicion. \r\nAway from the case, Dwayne meets his match in the shape of a troublesome schoolboy, \r\nFlorence has one last lesson in love for the inspector and JP makes a life-changing decision.\r\n\r\n\r\nI hope you enjoy.\r\n\r\n\r\nTechnical:\r\n\r\nGeneral\r\nComplete name                            : G:Death in Paradise S05E06 x264 RB58.mp4\r\nFormat                                   : MPEG-4\r\nFormat profile                           : Base Media\r\nCodec ID                                 : isom\r\nFile size                                : 642 MiB\r\nDuration                                 : 58mn 59s\r\nOverall bit rate                         : 1 521 Kbps\r\nWriting application                      : Lavf54.63.104\r\n\r\nVideo\r\nID                                       : 1\r\nFormat                                   : AVC\r\nFormat/Info                              : Advanced Video Codec\r\nFormat profile                           :   \r\nFormat settings, CABAC                   : Yes\r\nFormat settings, ReFrames                : 4 frames\r\nCodec ID                                 : avc1\r\nCodec ID/Info                            : Advanced Video Coding\r\nDuration                                 : 58mn 59s\r\nBit rate                                 : 1 400 Kbps\r\nWidth                                    : 832 pixels\r\nHeight                                   : 468 pixels\r\nDisplay aspect ratio                     : 16:9\r\nFrame rate mode                          : Constant\r\nFrame rate                               : 25.000 fps\r\nColor space                              : YUV\r\nChroma subsampling                       : 4:2:0\r\nBit depth                                : 8 bits\r\nScan type                                : Progressive\r\nBits/(Pixel*Frame)                       : 0.144\r\nStream size                              : 591 MiB (92%)\r\nWriting library                          : x264 core 123 r2189 35cf912\r\nEncoding settings                        : cabac=1 / ref=3 / deblock=1:0:0\r\n\r\nAudio\r\nID                                       : 2\r\nFormat                                   : AAC\r\nFormat/Info                              : Advanced Audio Codec\r\nFormat profile                           : LC\r\nCodec ID                                 : 40\r\nDuration                                 : 58mn 59s\r\nBit rate mode                            : Constant\r\nBit rate                                 : 112 Kbps\r\nChannel(s)                               : 2 channels\r\nChannel positions                        : Front: L R\r\nSampling rate                            : 48.0 KHz\r\nCompression mode                         : Lossy\r\nStream size                              : 47.3 MiB (7%)","torrent":{"xt":"urn:btih:273ce6d3a3e65d2620a738f6f67ffe80744ed4a7","amp;dn":"Dalziel+%26amp%3B+Pascoe+S06","amp;tr":["udp%3A%2F%2Ftracker.leechers-paradise.org%3A6969","udp%3A%2F%2Fzer0day.ch%3A1337","udp%3A%2F%2Fopen.demonii.com%3A1337","udp%3A%2F%2Ftracker.coppersurfer.tk%3A6969","udp%3A%2F%2Fexodus.desync.com%3A6969"],"infoHash":"273ce6d3a3e65d2620a738f6f67ffe80744ed4a7","infoHashBuffer":{"type":"Buffer","data":[39,60,230,211,163,230,93,38,32,167,56,246,246,127,254,128,116,78,212,167]},"announce":[],"urlList":[]}}